<?xml version="1.0" encoding="UTF-8" standalone="no"?>
<!DOCTYPE svg PUBLIC "-//W3C//DTD SVG 1.1//EN"
 "http://www.w3.org/Graphics/SVG/1.1/DTD/svg11.dtd">
<!-- Generated by graphviz version 2.43.0 (0)
 -->
<!-- Title: include/details/common.h Pages: 1 -->
<svg width="344pt" height="84pt"
 viewBox="0.00 0.00 344.00 84.00" xmlns="http://www.w3.org/2000/svg" xmlns:xlink="http://www.w3.org/1999/xlink">
<g id="graph0" class="graph" transform="scale(1 1) rotate(0) translate(4 80)">
<title>include/details/common.h</title>
<!-- Node1 -->
<g id="node1" class="node">
<title>Node1</title>
<g id="a_node1"><a xlink:title="Some useful helper functions, macros, etc.">
<polygon fill="#bfbfbf" stroke="black" points="96.5,-56.5 96.5,-75.5 239.5,-75.5 239.5,-56.5 96.5,-56.5"/>
<text text-anchor="middle" x="168" y="-63.5" font-family="Helvetica,sans-Serif" font-size="10.00">include/details/common.h</text>
</a>
</g>
</g>
<!-- Node2 -->
<g id="node2" class="node">
<title>Node2</title>
<g id="a_node2"><a xlink:href="tea1_8c.html" target="_top" xlink:title="TEA1 algorithm functions implementation.">
<polygon fill="none" stroke="black" points="0,-0.5 0,-19.5 100,-19.5 100,-0.5 0,-0.5"/>
<text text-anchor="middle" x="50" y="-7.5" font-family="Helvetica,sans-Serif" font-size="10.00">src/details/tea1.c</text>
</a>
</g>
</g>
<!-- Node1&#45;&gt;Node2 -->
<g id="edge1" class="edge">
<title>Node1&#45;&gt;Node2</title>
<path fill="none" stroke="midnightblue" d="M140.1,-52.23C118.03,-42.13 87.82,-28.31 68.61,-19.52"/>
<polygon fill="midnightblue" stroke="midnightblue" points="138.75,-55.46 149.3,-56.44 141.67,-49.1 138.75,-55.46"/>
</g>
<!-- Node3 -->
<g id="node3" class="node">
<title>Node3</title>
<g id="a_node3"><a xlink:href="tea2_8c.html" target="_top" xlink:title="TEA2 algorithm functions implementation.">
<polygon fill="none" stroke="black" points="118,-0.5 118,-19.5 218,-19.5 218,-0.5 118,-0.5"/>
<text text-anchor="middle" x="168" y="-7.5" font-family="Helvetica,sans-Serif" font-size="10.00">src/details/tea2.c</text>
</a>
</g>
</g>
<!-- Node1&#45;&gt;Node3 -->
<g id="edge2" class="edge">
<title>Node1&#45;&gt;Node3</title>
<path fill="none" stroke="midnightblue" d="M168,-45.8C168,-36.91 168,-26.78 168,-19.75"/>
<polygon fill="midnightblue" stroke="midnightblue" points="164.5,-46.08 168,-56.08 171.5,-46.08 164.5,-46.08"/>
</g>
<!-- Node4 -->
<g id="node4" class="node">
<title>Node4</title>
<g id="a_node4"><a xlink:href="tea3_8c.html" target="_top" xlink:title="TEA3 algorithm functions implementation.">
<polygon fill="none" stroke="black" points="236,-0.5 236,-19.5 336,-19.5 336,-0.5 236,-0.5"/>
<text text-anchor="middle" x="286" y="-7.5" font-family="Helvetica,sans-Serif" font-size="10.00">src/details/tea3.c</text>
</a>
</g>
</g>
<!-- Node1&#45;&gt;Node4 -->
<g id="edge3" class="edge">
<title>Node1&#45;&gt;Node4</title>
<path fill="none" stroke="midnightblue" d="M195.9,-52.23C217.97,-42.13 248.18,-28.31 267.39,-19.52"/>
<polygon fill="midnightblue" stroke="midnightblue" points="194.33,-49.1 186.7,-56.44 197.25,-55.46 194.33,-49.1"/>
</g>
</g>
</svg>
