<?xml version="1.0" encoding="UTF-8" standalone="no"?>
<!DOCTYPE svg PUBLIC "-//W3C//DTD SVG 1.1//EN"
 "http://www.w3.org/Graphics/SVG/1.1/DTD/svg11.dtd">
<!-- Generated by graphviz version 2.43.0 (0)
 -->
<!-- Title: src/details/tea1.c Pages: 1 -->
<svg width="240pt" height="140pt"
 viewBox="0.00 0.00 239.50 140.00" xmlns="http://www.w3.org/2000/svg" xmlns:xlink="http://www.w3.org/1999/xlink">
<g id="graph0" class="graph" transform="scale(1 1) rotate(0) translate(4 136)">
<title>src/details/tea1.c</title>
<!-- Node1 -->
<g id="node1" class="node">
<title>Node1</title>
<g id="a_node1"><a xlink:title="TEA1 algorithm functions implementation.">
<polygon fill="#bfbfbf" stroke="black" points="17.5,-112.5 17.5,-131.5 117.5,-131.5 117.5,-112.5 17.5,-112.5"/>
<text text-anchor="middle" x="67.5" y="-119.5" font-family="Helvetica,sans-Serif" font-size="10.00">src/details/tea1.c</text>
</a>
</g>
</g>
<!-- Node2 -->
<g id="node2" class="node">
<title>Node2</title>
<g id="a_node2"><a xlink:title=" ">
<polygon fill="none" stroke="#bfbfbf" points="0,-0.5 0,-19.5 65,-19.5 65,-0.5 0,-0.5"/>
<text text-anchor="middle" x="32.5" y="-7.5" font-family="Helvetica,sans-Serif" font-size="10.00">inttypes.h</text>
</a>
</g>
</g>
<!-- Node1&#45;&gt;Node2 -->
<g id="edge1" class="edge">
<title>Node1&#45;&gt;Node2</title>
<path fill="none" stroke="midnightblue" d="M51.77,-112.24C39.61,-104.48 23.69,-91.93 16.5,-76 9.64,-60.81 15.49,-42.23 21.96,-28.84"/>
<polygon fill="midnightblue" stroke="midnightblue" points="25.2,-30.21 26.83,-19.74 19.03,-26.91 25.2,-30.21"/>
</g>
<!-- Node3 -->
<g id="node3" class="node">
<title>Node3</title>
<g id="a_node3"><a xlink:href="tea1_8h.html" target="_top" xlink:title="TEA1 algorithm functions.">
<polygon fill="none" stroke="black" points="26,-56.5 26,-75.5 109,-75.5 109,-56.5 26,-56.5"/>
<text text-anchor="middle" x="67.5" y="-63.5" font-family="Helvetica,sans-Serif" font-size="10.00">details/tea1.h</text>
</a>
</g>
</g>
<!-- Node1&#45;&gt;Node3 -->
<g id="edge2" class="edge">
<title>Node1&#45;&gt;Node3</title>
<path fill="none" stroke="midnightblue" d="M67.5,-112.08C67.5,-105.01 67.5,-94.86 67.5,-85.99"/>
<polygon fill="midnightblue" stroke="midnightblue" points="71,-85.75 67.5,-75.75 64,-85.75 71,-85.75"/>
</g>
<!-- Node4 -->
<g id="node4" class="node">
<title>Node4</title>
<g id="a_node4"><a xlink:href="common_8h.html" target="_top" xlink:title="Some useful helper functions, macros, etc.">
<polygon fill="none" stroke="black" points="127.5,-56.5 127.5,-75.5 231.5,-75.5 231.5,-56.5 127.5,-56.5"/>
<text text-anchor="middle" x="179.5" y="-63.5" font-family="Helvetica,sans-Serif" font-size="10.00">details/common.h</text>
</a>
</g>
</g>
<!-- Node1&#45;&gt;Node4 -->
<g id="edge4" class="edge">
<title>Node1&#45;&gt;Node4</title>
<path fill="none" stroke="midnightblue" d="M85.49,-112.32C103.54,-103.62 131.55,-90.12 152.3,-80.11"/>
<polygon fill="midnightblue" stroke="midnightblue" points="154.06,-83.15 161.55,-75.65 151.02,-76.84 154.06,-83.15"/>
</g>
<!-- Node3&#45;&gt;Node2 -->
<g id="edge3" class="edge">
<title>Node3&#45;&gt;Node2</title>
<path fill="none" stroke="midnightblue" d="M61.72,-56.08C56.83,-48.53 49.67,-37.49 43.67,-28.23"/>
<polygon fill="midnightblue" stroke="midnightblue" points="46.55,-26.24 38.17,-19.75 40.67,-30.05 46.55,-26.24"/>
</g>
</g>
</svg>
