<?xml version="1.0" encoding="UTF-8" standalone="no"?>
<!DOCTYPE svg PUBLIC "-//W3C//DTD SVG 1.1//EN"
 "http://www.w3.org/Graphics/SVG/1.1/DTD/svg11.dtd">
<!-- Generated by graphviz version 2.43.0 (0)
 -->
<!-- Title: src/details/tea2.c Pages: 1 -->
<svg width="298pt" height="140pt"
 viewBox="0.00 0.00 297.53 140.00" xmlns="http://www.w3.org/2000/svg" xmlns:xlink="http://www.w3.org/1999/xlink">
<g id="graph0" class="graph" transform="scale(1 1) rotate(0) translate(4 136)">
<title>src/details/tea2.c</title>
<!-- Node1 -->
<g id="node1" class="node">
<title>Node1</title>
<g id="a_node1"><a xlink:title="TEA2 algorithm functions implementation.">
<polygon fill="#bfbfbf" stroke="black" points="32.53,-112.5 32.53,-131.5 132.53,-131.5 132.53,-112.5 32.53,-112.5"/>
<text text-anchor="middle" x="82.53" y="-119.5" font-family="Helvetica,sans-Serif" font-size="10.00">src/details/tea2.c</text>
</a>
</g>
</g>
<!-- Node2 -->
<g id="node2" class="node">
<title>Node2</title>
<g id="a_node2"><a xlink:title=" ">
<polygon fill="none" stroke="#bfbfbf" points="22.03,-0.5 22.03,-19.5 87.03,-19.5 87.03,-0.5 22.03,-0.5"/>
<text text-anchor="middle" x="54.53" y="-7.5" font-family="Helvetica,sans-Serif" font-size="10.00">inttypes.h</text>
</a>
</g>
</g>
<!-- Node1&#45;&gt;Node2 -->
<g id="edge1" class="edge">
<title>Node1&#45;&gt;Node2</title>
<path fill="none" stroke="midnightblue" d="M52.65,-112.39C34.99,-105.59 14.08,-94.15 3.53,-76 -7.37,-57.24 12.41,-37.96 30.43,-25.32"/>
<polygon fill="midnightblue" stroke="midnightblue" points="32.56,-28.11 38.99,-19.68 28.71,-22.26 32.56,-28.11"/>
</g>
<!-- Node3 -->
<g id="node3" class="node">
<title>Node3</title>
<g id="a_node3"><a xlink:title=" ">
<polygon fill="none" stroke="#bfbfbf" points="13.03,-56.5 13.03,-75.5 66.03,-75.5 66.03,-56.5 13.03,-56.5"/>
<text text-anchor="middle" x="39.53" y="-63.5" font-family="Helvetica,sans-Serif" font-size="10.00">string.h</text>
</a>
</g>
</g>
<!-- Node1&#45;&gt;Node3 -->
<g id="edge2" class="edge">
<title>Node1&#45;&gt;Node3</title>
<path fill="none" stroke="midnightblue" d="M75.43,-112.08C69.3,-104.38 60.26,-93.03 52.79,-83.65"/>
<polygon fill="midnightblue" stroke="midnightblue" points="55.47,-81.39 46.5,-75.75 49.99,-85.75 55.47,-81.39"/>
</g>
<!-- Node4 -->
<g id="node4" class="node">
<title>Node4</title>
<g id="a_node4"><a xlink:href="tea2_8h.html" target="_top" xlink:title="TEA2 algorithm functions.">
<polygon fill="none" stroke="black" points="84.03,-56.5 84.03,-75.5 167.03,-75.5 167.03,-56.5 84.03,-56.5"/>
<text text-anchor="middle" x="125.53" y="-63.5" font-family="Helvetica,sans-Serif" font-size="10.00">details/tea2.h</text>
</a>
</g>
</g>
<!-- Node1&#45;&gt;Node4 -->
<g id="edge3" class="edge">
<title>Node1&#45;&gt;Node4</title>
<path fill="none" stroke="midnightblue" d="M89.63,-112.08C95.77,-104.38 104.8,-93.03 112.27,-83.65"/>
<polygon fill="midnightblue" stroke="midnightblue" points="115.07,-85.75 118.56,-75.75 109.6,-81.39 115.07,-85.75"/>
</g>
<!-- Node5 -->
<g id="node5" class="node">
<title>Node5</title>
<g id="a_node5"><a xlink:href="common_8h.html" target="_top" xlink:title="Some useful helper functions, macros, etc.">
<polygon fill="none" stroke="black" points="185.53,-56.5 185.53,-75.5 289.53,-75.5 289.53,-56.5 185.53,-56.5"/>
<text text-anchor="middle" x="237.53" y="-63.5" font-family="Helvetica,sans-Serif" font-size="10.00">details/common.h</text>
</a>
</g>
</g>
<!-- Node1&#45;&gt;Node5 -->
<g id="edge5" class="edge">
<title>Node1&#45;&gt;Node5</title>
<path fill="none" stroke="midnightblue" d="M107.09,-112.44C133.06,-103.4 174.2,-89.06 203.33,-78.92"/>
<polygon fill="midnightblue" stroke="midnightblue" points="204.8,-82.11 213.09,-75.52 202.49,-75.5 204.8,-82.11"/>
</g>
<!-- Node4&#45;&gt;Node2 -->
<g id="edge4" class="edge">
<title>Node4&#45;&gt;Node2</title>
<path fill="none" stroke="midnightblue" d="M114.13,-56.32C103.42,-48.18 87.19,-35.84 74.37,-26.09"/>
<polygon fill="midnightblue" stroke="midnightblue" points="76.23,-23.1 66.15,-19.83 71.99,-28.67 76.23,-23.1"/>
</g>
</g>
</svg>
