<?xml version="1.0" encoding="UTF-8" standalone="no"?>
<!DOCTYPE svg PUBLIC "-//W3C//DTD SVG 1.1//EN"
 "http://www.w3.org/Graphics/SVG/1.1/DTD/svg11.dtd">
<!-- Generated by graphviz version 2.43.0 (0)
 -->
<!-- Title: include/details/tea2.h Pages: 1 -->
<svg width="214pt" height="84pt"
 viewBox="0.00 0.00 213.50 84.00" xmlns="http://www.w3.org/2000/svg" xmlns:xlink="http://www.w3.org/1999/xlink">
<g id="graph0" class="graph" transform="scale(1 1) rotate(0) translate(4 80)">
<title>include/details/tea2.h</title>
<!-- Node1 -->
<g id="node1" class="node">
<title>Node1</title>
<g id="a_node1"><a xlink:title="TEA2 algorithm functions.">
<polygon fill="#bfbfbf" stroke="black" points="38.5,-56.5 38.5,-75.5 160.5,-75.5 160.5,-56.5 38.5,-56.5"/>
<text text-anchor="middle" x="99.5" y="-63.5" font-family="Helvetica,sans-Serif" font-size="10.00">include/details/tea2.h</text>
</a>
</g>
</g>
<!-- Node2 -->
<g id="node2" class="node">
<title>Node2</title>
<g id="a_node2"><a xlink:href="tetra_8h.html" target="_top" xlink:title="TETRA library main header.">
<polygon fill="none" stroke="black" points="0,-0.5 0,-19.5 87,-19.5 87,-0.5 0,-0.5"/>
<text text-anchor="middle" x="43.5" y="-7.5" font-family="Helvetica,sans-Serif" font-size="10.00">include/tetra.h</text>
</a>
</g>
</g>
<!-- Node1&#45;&gt;Node2 -->
<g id="edge1" class="edge">
<title>Node1&#45;&gt;Node2</title>
<path fill="none" stroke="midnightblue" d="M83.17,-49.25C73.24,-39.67 60.91,-27.79 52.66,-19.83"/>
<polygon fill="midnightblue" stroke="midnightblue" points="80.87,-51.9 90.5,-56.32 85.73,-46.86 80.87,-51.9"/>
</g>
<!-- Node3 -->
<g id="node3" class="node">
<title>Node3</title>
<g id="a_node3"><a xlink:href="tea2_8c.html" target="_top" xlink:title="TEA2 algorithm functions implementation.">
<polygon fill="none" stroke="black" points="105.5,-0.5 105.5,-19.5 205.5,-19.5 205.5,-0.5 105.5,-0.5"/>
<text text-anchor="middle" x="155.5" y="-7.5" font-family="Helvetica,sans-Serif" font-size="10.00">src/details/tea2.c</text>
</a>
</g>
</g>
<!-- Node1&#45;&gt;Node3 -->
<g id="edge2" class="edge">
<title>Node1&#45;&gt;Node3</title>
<path fill="none" stroke="midnightblue" d="M115.83,-49.25C125.76,-39.67 138.09,-27.79 146.34,-19.83"/>
<polygon fill="midnightblue" stroke="midnightblue" points="113.27,-46.86 108.5,-56.32 118.13,-51.9 113.27,-46.86"/>
</g>
</g>
</svg>
