<?xml version="1.0" encoding="UTF-8" standalone="no"?>
<!DOCTYPE svg PUBLIC "-//W3C//DTD SVG 1.1//EN"
 "http://www.w3.org/Graphics/SVG/1.1/DTD/svg11.dtd">
<!-- Generated by graphviz version 2.43.0 (0)
 -->
<!-- Title: include/tetra.h Pages: 1 -->
<svg width="293pt" height="140pt"
 viewBox="0.00 0.00 293.00 140.00" xmlns="http://www.w3.org/2000/svg" xmlns:xlink="http://www.w3.org/1999/xlink">
<g id="graph0" class="graph" transform="scale(1 1) rotate(0) translate(4 136)">
<title>include/tetra.h</title>
<!-- Node1 -->
<g id="node1" class="node">
<title>Node1</title>
<g id="a_node1"><a xlink:title="TETRA library main header.">
<polygon fill="#bfbfbf" stroke="black" points="99,-112.5 99,-131.5 186,-131.5 186,-112.5 99,-112.5"/>
<text text-anchor="middle" x="142.5" y="-119.5" font-family="Helvetica,sans-Serif" font-size="10.00">include/tetra.h</text>
</a>
</g>
</g>
<!-- Node2 -->
<g id="node2" class="node">
<title>Node2</title>
<g id="a_node2"><a xlink:href="tea1_8h.html" target="_top" xlink:title="TEA1 algorithm functions.">
<polygon fill="none" stroke="black" points="0,-56.5 0,-75.5 83,-75.5 83,-56.5 0,-56.5"/>
<text text-anchor="middle" x="41.5" y="-63.5" font-family="Helvetica,sans-Serif" font-size="10.00">details/tea1.h</text>
</a>
</g>
</g>
<!-- Node1&#45;&gt;Node2 -->
<g id="edge1" class="edge">
<title>Node1&#45;&gt;Node2</title>
<path fill="none" stroke="midnightblue" d="M126.27,-112.32C110.15,-103.7 85.2,-90.36 66.54,-80.39"/>
<polygon fill="midnightblue" stroke="midnightblue" points="68.16,-77.28 57.69,-75.65 64.86,-83.46 68.16,-77.28"/>
</g>
<!-- Node4 -->
<g id="node4" class="node">
<title>Node4</title>
<g id="a_node4"><a xlink:href="tea2_8h.html" target="_top" xlink:title="TEA2 algorithm functions.">
<polygon fill="none" stroke="black" points="101,-56.5 101,-75.5 184,-75.5 184,-56.5 101,-56.5"/>
<text text-anchor="middle" x="142.5" y="-63.5" font-family="Helvetica,sans-Serif" font-size="10.00">details/tea2.h</text>
</a>
</g>
</g>
<!-- Node1&#45;&gt;Node4 -->
<g id="edge3" class="edge">
<title>Node1&#45;&gt;Node4</title>
<path fill="none" stroke="midnightblue" d="M142.5,-112.08C142.5,-105.01 142.5,-94.86 142.5,-85.99"/>
<polygon fill="midnightblue" stroke="midnightblue" points="146,-85.75 142.5,-75.75 139,-85.75 146,-85.75"/>
</g>
<!-- Node5 -->
<g id="node5" class="node">
<title>Node5</title>
<g id="a_node5"><a xlink:href="tea3_8h.html" target="_top" xlink:title="TEA3 algorithm functions.">
<polygon fill="none" stroke="black" points="202,-56.5 202,-75.5 285,-75.5 285,-56.5 202,-56.5"/>
<text text-anchor="middle" x="243.5" y="-63.5" font-family="Helvetica,sans-Serif" font-size="10.00">details/tea3.h</text>
</a>
</g>
</g>
<!-- Node1&#45;&gt;Node5 -->
<g id="edge5" class="edge">
<title>Node1&#45;&gt;Node5</title>
<path fill="none" stroke="midnightblue" d="M158.73,-112.32C174.85,-103.7 199.8,-90.36 218.46,-80.39"/>
<polygon fill="midnightblue" stroke="midnightblue" points="220.14,-83.46 227.31,-75.65 216.84,-77.28 220.14,-83.46"/>
</g>
<!-- Node3 -->
<g id="node3" class="node">
<title>Node3</title>
<g id="a_node3"><a xlink:title=" ">
<polygon fill="none" stroke="#bfbfbf" points="110,-0.5 110,-19.5 175,-19.5 175,-0.5 110,-0.5"/>
<text text-anchor="middle" x="142.5" y="-7.5" font-family="Helvetica,sans-Serif" font-size="10.00">inttypes.h</text>
</a>
</g>
</g>
<!-- Node2&#45;&gt;Node3 -->
<g id="edge2" class="edge">
<title>Node2&#45;&gt;Node3</title>
<path fill="none" stroke="midnightblue" d="M57.73,-56.32C73.85,-47.7 98.8,-34.36 117.46,-24.39"/>
<polygon fill="midnightblue" stroke="midnightblue" points="119.14,-27.46 126.31,-19.65 115.84,-21.28 119.14,-27.46"/>
</g>
<!-- Node4&#45;&gt;Node3 -->
<g id="edge4" class="edge">
<title>Node4&#45;&gt;Node3</title>
<path fill="none" stroke="midnightblue" d="M142.5,-56.08C142.5,-49.01 142.5,-38.86 142.5,-29.99"/>
<polygon fill="midnightblue" stroke="midnightblue" points="146,-29.75 142.5,-19.75 139,-29.75 146,-29.75"/>
</g>
<!-- Node5&#45;&gt;Node3 -->
<g id="edge6" class="edge">
<title>Node5&#45;&gt;Node3</title>
<path fill="none" stroke="midnightblue" d="M227.27,-56.32C211.15,-47.7 186.2,-34.36 167.54,-24.39"/>
<polygon fill="midnightblue" stroke="midnightblue" points="169.16,-21.28 158.69,-19.65 165.86,-27.46 169.16,-21.28"/>
</g>
</g>
</svg>
